<svg xmlns="http://www.w3.org/2000/svg" width="239.144" height="82.235" viewBox="0 0 239.144 82.235"><defs><style>.a{fill:#eb5e00;}.b{fill:#2f3035;}.c{fill:none;}.d{fill:#fff;}</style></defs><g transform="translate(0 0.046)"><path class="a" d="M112.488-38.059a.846.846,0,0,0,.146.068,1.233,1.233,0,0,1,.614,2.207q-2.456,2.39-4.921,4.771-3.5,3.392-6.992,6.786a1.393,1.393,0,0,1-1.161.46,1.226,1.226,0,0,1-1.1-.822,1.175,1.175,0,0,1,.336-1.332q2.339-2.274,4.678-4.546,3.511-3.408,7.019-6.818a2.507,2.507,0,0,1,1.293-.774Z" transform="translate(-98.943 38.059)"/><path class="a" d="M100.35-30a1.391,1.391,0,0,1-1.386-.778,1.134,1.134,0,0,1,.291-1.37c.869-.862,1.753-1.71,2.632-2.562.958-.929,1.913-1.861,2.875-2.786a1.347,1.347,0,0,1,1.583-.252,1.174,1.174,0,0,1,.642,1.363,1.534,1.534,0,0,1-.387.652q-2.709,2.659-5.453,5.286A3.134,3.134,0,0,1,100.35-30Z" transform="translate(-98.846 37.955)"/><path class="a" d="M125.074-19.167a1.32,1.32,0,0,1,1.3.726,1.188,1.188,0,0,1-.278,1.414c-.883.868-1.776,1.726-2.665,2.588-.948.919-1.892,1.843-2.846,2.757a1.3,1.3,0,0,1-1.65.213,1.188,1.188,0,0,1-.541-1.44,1.645,1.645,0,0,1,.384-.566q2.639-2.584,5.293-5.153A1.432,1.432,0,0,1,125.074-19.167Z" transform="translate(-111.667 25.619)"/></g><g transform="translate(7.679 0)"><rect class="b" width="7.443" height="7.672" transform="translate(18.788 3.265)"/><path class="b" d="M146.936-32.229v10.136h5.16a6.183,6.183,0,0,1,5.193,2.819,6.194,6.194,0,0,1,.466,5.894l-9.46,21.216a24.989,24.989,0,0,1-1.359,2.7V38.361l5.977-4.784V11.448l2.666-1.295a15.04,15.04,0,0,0,7.272-7.547l.057-.134h5.563V4.865h2.392V-6.611a2.389,2.389,0,0,0-2.392,2.392v4.3h-4.516l5.69-13.039a9.728,9.728,0,0,0,.817-3.91,9.778,9.778,0,0,0-4.389-8.165v-2.392h11.967l-11.967-4.669v-1.314a4.785,4.785,0,0,0-4.778-4.784H146.822m11.34,7.368a2.323,2.323,0,0,1,2.316-2.1,2.32,2.32,0,0,1,2.271,1.875c.013.076.026.147.032.223a.573.573,0,0,1,.006.109,1.5,1.5,0,0,1-1.493,1.5,1.5,1.5,0,0,1-1.5-1.5" transform="translate(-138.12 38.193)"/><path class="a" d="M139.025,20.915l-9.454,21.229a26.214,26.214,0,0,1-8.236,10.417l4.708-33.936A3.983,3.983,0,0,1,129.98,15.2h5.333a4.065,4.065,0,0,1,3.713,5.716Z" transform="translate(-121.336 3.032)"/><g transform="translate(20.172 5.041)"><path class="c" d="M188.473-19.577a2.244,2.244,0,0,0-.389-1.266,1.579,1.579,0,0,0-.69-.158,1.585,1.585,0,0,0-1.585,1.585,1.585,1.585,0,0,0,1.585,1.585,1.6,1.6,0,0,0,.279-.025A2.249,2.249,0,0,0,188.473-19.577Z" transform="translate(-183.966 21.83)"/><path class="d" d="M182.255-21.015a1.586,1.586,0,0,1,1.585-1.585,1.579,1.579,0,0,1,.69.158,2.251,2.251,0,0,0-1.864-.987,2.253,2.253,0,0,0-2.253,2.253,2.254,2.254,0,0,0,2.253,2.254,2.244,2.244,0,0,0,1.453-.532,1.6,1.6,0,0,1-.279.025A1.586,1.586,0,0,1,182.255-21.015Z" transform="translate(-180.413 23.43)"/></g></g><g transform="translate(45.429 11.346)"><g transform="translate(0 0)"><path class="b" d="M273.823,15l1-1V-3.968l1-1H287.8l1,1V63.925l-1,1H275.82l-1-1V27.982l-1-1H255.85l-1,1V63.925l-1,1h-11.98l-1-1V27.982l-1-1h-6.99l-1-1V16l1-1h6.99l1-1V10.011c0-10.983,7.989-14.976,16.973-14.976h7.989l1,1V6.018l-1,1h-7.989a2.647,2.647,0,0,0-2.994,3V14l1,1Z" transform="translate(-231.89 4.965)"/><path class="b" d="M446.652,7.015h-11.98l-1-1V-3.968l1-1h11.98l1,1V6.018Zm0,57.91h-11.98l-1-1V16l1-1h11.98l1,1V63.925Z" transform="translate(-364.772 4.965)"/><path class="b" d="M525.9,90.527c4.993,0,7.987-2,8.986-4.99l1-1h11.983l1,1c-2,11.98-11.98,16.973-22.963,16.973-14.977,0-24.96-9.986-24.96-25.96s9.984-25.96,24.96-25.96c10.983,0,20.966,4.993,22.963,16.973l-1,1H535.882l-1-1c-1-3-3.994-4.993-8.986-4.993-6.99,0-10.983,4.993-10.983,13.98S518.908,90.527,525.9,90.527Z" transform="translate(-409.07 -31.621)"/><path class="b" d="M711.56,64.925h-5.993l-2-1L689.593,48.951h-1l-5.99,5.99-1,2v6.988l-1,1h-11.98l-1-1V-3.968l1-1h11.98l1,1V35.971h1L702.573,16l2-1h5.99l1,1v9.984L699.577,37.968v1l12.98,14.976v9.984Z" transform="translate(-518.842 4.965)"/></g><circle class="d" cx="5.136" cy="5.136" r="5.136" transform="translate(6.282 1.538)"/></g></svg>